<svg width="200" height="200" viewBox="0 0 200 200" fill="none" xmlns="http://www.w3.org/2000/svg">
<rect width="200" height="200" rx="20" fill="#1A334D"/>
<path d="M42.7656 54.9453C42.4375 53.9609 42.2734 52.9766 42.2734 51.9922C42.2734 49.6953 43.1406 47.8672 44.875 46.5078C46.6094 45.1016 48.6953 44.3984 51.1328 44.3984C52.9141 44.3984 54.5078 44.9375 55.9141 46.0156C57.3672 47.0937 58.3984 48.6406 59.0078 50.6562L83.4766 127.297C83.7578 128.141 83.8984 128.961 83.8984 129.758C83.8984 131.914 83.0547 133.672 81.3672 135.031C79.6797 136.344 77.7109 137 75.4609 137C73.6797 137 72.0156 136.484 70.4688 135.453C68.9688 134.422 67.9375 133.039 67.375 131.305L42.7656 54.9453ZM125.945 67.4609C131.102 67.4609 135.625 68.5625 139.516 70.7656C143.453 72.9219 146.477 75.9922 148.586 79.9766C150.742 83.9141 151.82 88.4844 151.82 93.6875V129.758C151.82 132.289 151.164 134.211 149.852 135.523C148.539 136.836 146.617 137.492 144.086 137.492C141.648 137.492 139.797 136.836 138.531 135.523C137.266 134.211 136.633 132.289 136.633 129.758V94.5312C136.633 90.5938 135.531 87.5938 133.328 85.5312C131.125 83.4688 128.195 82.4375 124.539 82.4375C120.086 82.4375 115.797 83.0469 111.672 84.2656V129.758C111.672 132.289 111.039 134.211 109.773 135.523C108.555 136.836 106.75 137.492 104.359 137.492C101.781 137.492 99.8125 136.836 98.4531 135.523C97.1406 134.211 96.4844 132.289 96.4844 129.758V77.6562C96.4844 76.3438 96.7656 75.1953 97.3281 74.2109C97.8906 73.2266 98.6641 72.5234 99.6484 72.1016C103.117 70.6484 107.078 69.5234 111.531 68.7266C115.984 67.8828 120.789 67.4609 125.945 67.4609Z" fill="white"/>
</svg>
